<svg xmlns="http://www.w3.org/2000/svg" viewBox="0 0 180 80" fill="none">
  <g transform="translate(58.759 10) scale(0.34949)">
    <path d="M162.239 53.566c4.196 9.92 6.516 20.826 6.516 32.274 0 45.793-37.122 82.915-82.915 82.915-17.309 0-33.38-5.304-46.675-14.375" stroke="#003565" stroke-width="5.903" stroke-linecap="round" stroke-miterlimit="10"/>
    <path d="M7.326 112.564c-2.853-8.385-4.401-17.374-4.401-26.725C2.925 40.047 40.047 2.925 85.84 2.925c13.827 0 26.863 3.385 38.326 9.37" stroke="#003565" stroke-width="5.903" stroke-linecap="round" stroke-miterlimit="10"/>
    <path d="M20.952 119.954c-.984 1.085-4.979 5.73-4.612 12.297.276 4.929 2.893 8.865 4.831 10.541 6.786 5.867 24.232.444 42.602-13.835.513-.462 4.196-3.674 9.003-2.855 3.658.624 6.779 3.379 8.217 7.157.771 2.026 2.605 3.45 4.771 3.529l8.617.315c2.605.095 4.927-1.726 5.355-4.297.687-4.121 3.362-7.769 7.297-9.559 4.06-1.848 8.738-1.388 12.353 1.001 1.961 1.296 4.57 1.036 6.376-.469l5.137-4.281c2.115-1.763 2.533-4.875.903-7.094-2.637-3.591-3.45-8.33-1.931-12.654 1.657-4.719 5.786-8.071 10.582-8.925 2.513-.447 4.35-2.617 4.35-5.169v-6.395c0-2.929-2.357-5.406-5.285-5.346-5.216.106-9.941-2.81-11.624-7.104-1.328-3.389-.691-7.457 1.596-10.772 1.269-1.839 1.149-4.306-.154-6.121-1.213-1.689-2.425-3.378-3.638-5.067" stroke="#003565" stroke-width="5.903" stroke-linecap="round" stroke-miterlimit="10"/>
    <path d="M50.817 125.224l-5.506-7.954c-1.297-1.873-1.106-4.355.364-6.095 2.763-3.27 3.243-6.813 1.19-11.424-2.123-4.765-5.981-5.557-10.98-6.753-2.31-.553-3.998-2.521-3.965-4.896l-.499-10.061c.036-2.594 2.064-4.787 4.657-4.872 5.774-.19 10.553-3.232 11.666-8.334.787-3.607-.312-7.511-2.841-10.553-1.67-2.008-1.631-4.923.233-6.752l4.375-4.294c1.803-1.77 4.675-1.927 6.603-.293 3.973 3.368 9.573 4.284 14.248 2.129 4.152-1.914 6.974-5.972 7.539-10.568.285-2.318 2.184-4.103 4.512-4.287l7.982-.63c2.281-.18 4.388 1.223 5.093 3.399 1.205 3.717 3.434 8.098 7.594 9.89 4.212 1.814 8.38.101 21.301-5.49 10.108-4.374 18.049-7.865 22.618-9.882" stroke="#003565" stroke-width="5.903" stroke-linecap="round" stroke-miterlimit="10"/>
    <path d="M142.778 18.59l6.297 5.812c.471.435.807.997.966 1.618l2.512 9.82c.648 2.532 3.829 3.36 5.629 1.465l16.772-17.653c1.963-2.066.585-5.484-2.263-5.609l-27.512-1.215c-3.095-.137-4.677 3.661-2.401 5.762Z" stroke="#003565" stroke-width="5.903" stroke-linecap="round" stroke-miterlimit="10"/>
    <circle cx="87.928" cy="84.528" r="29.355" stroke="#003565" stroke-width="5.903" stroke-linecap="round" stroke-miterlimit="10"/>
    <path d="M73.667 90.326l5.687 5.055c1.313 1.167 3.308 1.114 4.556-.123l19.994-19.718" stroke="#003565" stroke-width="5.903" stroke-linecap="round" stroke-miterlimit="10"/>
  </g>
</svg>
