<svg xmlns="http://www.w3.org/2000/svg" width="68.899" height="66.337" viewBox="0 0 68.899 66.337">
  <g id="Polygon_9" data-name="Polygon 9" transform="translate(45.899 66.337) rotate(-150)" fill="none">
    <path d="M23.9,4.512a3,3,0,0,1,5.2,0L50.409,41.5a3,3,0,0,1-2.6,4.5H5.19a3,3,0,0,1-2.6-4.5Z" stroke="none"/>
    <path d="M 26.50002098083496 6.009857177734375 L 26.50003051757812 6.009868621826172 L 5.190471649169922 43.00002670288086 L 47.80958938598633 43.00003814697266 L 26.50002098083496 6.009857177734375 M 26.50002861022949 3.009868621826172 C 27.51126098632812 3.009868621826172 28.52249145507812 3.510688781738281 29.09951972961426 4.5123291015625 L 50.40909194946289 41.50249862670898 C 51.56126022338867 43.50248718261719 50.11772918701172 46.00002670288086 47.80958938598633 46.00002670288086 L 5.190471649169922 46.00002670288086 C 2.882331848144531 46.00002670288086 1.438800811767578 43.50248718261719 2.590969085693359 41.50249862670898 L 23.9005298614502 4.5123291015625 C 24.47756576538086 3.510688781738281 25.48879814147949 3.009868621826172 26.50002861022949 3.009868621826172 Z" stroke="none" fill="#003565"/>
  </g>
</svg>
