<svg xmlns="http://www.w3.org/2000/svg" xmlns:xlink="http://www.w3.org/1999/xlink" width="124.625" height="1222.709" viewBox="0 0 124.625 1222.709">
  <defs>
    <clipPath id="clip-path">
      <rect id="Rectangle_95" data-name="Rectangle 95" width="1211.161" height="52.704" fill="none" stroke="#fbbe62" stroke-width="5"/>
    </clipPath>
    <clipPath id="clip-path-2">
      <rect id="Rectangle_96" data-name="Rectangle 96" width="1200.797" height="67.343" fill="none" stroke="#9ae4ff" stroke-width="5"/>
    </clipPath>
    <clipPath id="clip-path-3">
      <rect id="Rectangle_97" data-name="Rectangle 97" width="1222.709" height="75.857" fill="none" stroke="#003565" stroke-width="5"/>
    </clipPath>
    <clipPath id="clip-path-4">
      <rect id="Rectangle_98" data-name="Rectangle 98" width="1200.692" height="95.84" fill="none" stroke="#5fd469" stroke-width="5"/>
    </clipPath>
    <clipPath id="clip-path-5">
      <rect id="Rectangle_99" data-name="Rectangle 99" width="1187.677" height="37.128" fill="none" stroke="#c10a27" stroke-width="5"/>
    </clipPath>
  </defs>
  <g id="Group_134" data-name="Group 134" transform="translate(1301.497 -715.08) rotate(90)">
    <g id="Group_133" data-name="Group 133" transform="translate(732.323 41)">
      <g id="Group_122" data-name="Group 122" transform="translate(-5.695 1146.035)">
        <g id="Group_121" data-name="Group 121" clip-path="url(#clip-path)">
          <path id="Path_65" data-name="Path 65" d="M.089,52.288c63.055-14.126,127.238-28.38,193.026-28.109C281.149,24.543,366.6,50.934,454.6,49.257,559.389,47.261,656.949,5.778,761.57.926c87.584-4.063,173.557,17.787,261.129,22,63.3,3.047,127.012-3.195,188.39-15.233" transform="translate(-0.004 0)" fill="none" stroke="#fbbe62" stroke-miterlimit="10" stroke-width="5"/>
        </g>
      </g>
      <g id="Group_124" data-name="Group 124" transform="translate(-5.695 1164.657)">
        <g id="Group_123" data-name="Group 123" clip-path="url(#clip-path-2)">
          <path id="Path_66" data-name="Path 66" d="M.132.4c119.395,38.347,247.278,77.61,376.8,63.621,65.729-7.1,126.922-27.591,190.807-40.68C664.927,3.431,769.061.907,867.934,16.068c111.033,17.026,221.728,56.089,332.8,39.178" transform="translate(0.002 0)" fill="none" stroke="#9ae4ff" stroke-miterlimit="10" stroke-width="5"/>
        </g>
      </g>
      <g id="Group_126" data-name="Group 126" transform="translate(-17.243 1160.811)">
        <g id="Group_125" data-name="Group 125" transform="translate(0)" clip-path="url(#clip-path-3)">
          <path id="Path_67" data-name="Path 67" d="M1222.555.4C1141.63,30.776,1058.821,61.611,968.48,71.6,843.457,85.43,717.667,58.133,591.971,47.879c-46.1-3.761-92.5-5.225-138.852-6.687-49.834-1.572-100.286-3.111-149.125,4.143C255.1,52.6,208.665,68.563,158.844,71.013,104.416,73.69,51.31,60.023.11,46.564" transform="translate(0.001 0)" fill="none" stroke="#003565" stroke-miterlimit="10" stroke-width="5"/>
        </g>
      </g>
      <g id="Group_128" data-name="Group 128" transform="translate(-5.695 1164.657)">
        <g id="Group_127" data-name="Group 127" clip-path="url(#clip-path-4)">
          <path id="Path_68" data-name="Path 68" d="M.079,25.487C36.666,32.519,71.335,44.475,101.667,60.52c19.374,10.249,37.36,22.3,59.66,28.969,43.024,12.865,93.3,3.014,133.934-13.263s76.027-38.673,117.752-53.513c56.243-20,121.416-25.151,184.118-20.866S720.6,19.4,779.75,34.682C830.365,47.756,880.779,62.465,934.164,67.73c90.669,8.941,182.348-10.107,266.419-35.657" transform="translate(-0.005 0)" fill="none" stroke="#5fd469" stroke-miterlimit="10" stroke-width="5"/>
        </g>
      </g>
      <g id="Group_130" data-name="Group 130" transform="translate(0 1135.872)">
        <g id="Group_129" data-name="Group 129" clip-path="url(#clip-path-5)">
          <path id="Path_69" data-name="Path 69" d="M.018,26.742c147.73,6.209,294.916-27.3,442.5-19.343,110.272,5.943,218.63,34.953,328.833,28.3,82.883-5,162.136-30.036,245.076-34.463,56.987-3.041,114.128,3.739,171.24,2.817" transform="translate(-0.001 0)" fill="none" stroke="#c10a27" stroke-miterlimit="10" stroke-width="5"/>
        </g>
      </g>
    </g>
  </g>
</svg>
