<svg xmlns="http://www.w3.org/2000/svg" width="1955.032" height="141.201" viewBox="0 0 1955.032 141.201" fill="none">
	<path d="M11.685 52.288C112.866 38.162 215.856 23.908 321.423 24.179C462.686 24.543 599.798 50.934 741.023 49.257C909.164 47.261 1065.712 5.778 1233.596 0.926C1374.138 -3.137 1512.096 18.787 1652.616 23C1754.186 26.047 1856.425 19.805 1954.896 7.767" stroke="#FBBE62" stroke-width="5" stroke-miterlimit="10"/>
	<path d="M11.764 59.761C203.974 98.108 409.847 137.371 618.352 123.382C724.166 116.282 822.68 95.791 925.525 82.702C1081.994 62.792 1249.632 60.268 1408.808 75.429C1587.556 92.455 1765.76 131.518 1944.564 114.607" stroke="#9AE4FF" stroke-width="5" stroke-miterlimit="10"/>
	<path d="M1954.788 52.633C1825.393 83.012 1692.988 113.847 1548.538 123.833C1348.638 137.661 1147.504 110.364 946.524 100.11C872.813 96.349 798.626 94.885 724.511 93.423C644.827 91.852 564.159 90.313 486.068 97.567C407.89 104.832 333.643 120.795 253.983 123.245C166.957 125.922 82.044 112.255 0.178 98.796" stroke="#003565" stroke-width="5" stroke-miterlimit="10"/>
	<path d="M11.667 70.848C70.569 77.88 126.388 89.836 175.216 105.881C206.406 116.13 235.362 128.181 271.264 134.85C340.529 147.715 421.47 137.861 486.888 121.587C552.305 105.313 609.288 82.914 676.457 68.074C767.004 48.078 871.926 42.923 972.872 47.208C1073.818 51.493 1171.645 62.765 1266.873 78.043C1348.359 91.117 1429.521 105.826 1515.468 111.091C1661.437 120.032 1809.034 100.984 1944.381 75.434" stroke="#5FD469" stroke-width="5" stroke-miterlimit="10"/>
	<path d="M17.27 78.975C256.091 85.184 494.031 51.678 732.623 59.633C910.889 65.576 1086.06 94.586 1264.214 87.933C1398.203 82.932 1526.323 57.897 1660.405 53.47C1752.53 50.429 1844.905 57.209 1937.232 56.287" stroke="#C10A27" stroke-width="5" stroke-miterlimit="10"/>
</svg>
